<?xml version="1.0" encoding="UTF-8" standalone="no"?>
<!-- Created with Inkscape (http://www.inkscape.org/) -->

<svg
   xmlns:dc="http://purl.org/dc/elements/1.1/"
   xmlns:cc="http://creativecommons.org/ns#"
   xmlns:rdf="http://www.w3.org/1999/02/22-rdf-syntax-ns#"
   xmlns:svg="http://www.w3.org/2000/svg"
   xmlns="http://www.w3.org/2000/svg"
   xmlns:sodipodi="http://sodipodi.sourceforge.net/DTD/sodipodi-0.dtd"
   xmlns:inkscape="http://www.inkscape.org/namespaces/inkscape"
   width="32px"
   height="32px"
   id="svg3016"
   version="1.1"
   inkscape:version="0.48.2 r9819"
   sodipodi:docname="New document 2">
  <defs
     id="defs3018" />
  <sodipodi:namedview
     id="base"
     pagecolor="#ffffff"
     bordercolor="#666666"
     borderopacity="1.0"
     inkscape:pageopacity="0.0"
     inkscape:pageshadow="2"
     inkscape:zoom="11.197802"
     inkscape:cx="30.616741"
     inkscape:cy="15.276205"
     inkscape:current-layer="layer1"
     showgrid="true"
     inkscape:grid-bbox="true"
     inkscape:document-units="px"
     inkscape:window-width="1440"
     inkscape:window-height="844"
     inkscape:window-x="-4"
     inkscape:window-y="-4"
     inkscape:window-maximized="1" />
  <metadata
     id="metadata3021">
    <rdf:RDF>
      <cc:Work
         rdf:about="">
        <dc:format>image/svg+xml</dc:format>
        <dc:type
           rdf:resource="http://purl.org/dc/dcmitype/StillImage" />
        <dc:title></dc:title>
      </cc:Work>
    </rdf:RDF>
  </metadata>
  <g
     id="layer1"
     inkscape:label="Layer 1"
     inkscape:groupmode="layer">
    <path
       style="fill:#fdcc95"
       inkscape:connector-curvature="0"
       d="m 3.28011,0.57340978 c 6.929072,-0.78519119 13.939785,-0.0860483 20.909676,-0.36570551 2.408337,0.0968045 6.214735,-0.3549494 6.714772,3.04396013 0.949048,7.7013256 0.867409,15.5532376 0.25512,23.2975886 -0.112252,2.839595 -2.418542,5.238193 -5.122819,5.281217 C 19.638437,32.217688 13.2094,32.067103 6.8007729,31.92728 4.1679292,32.013324 1.3411941,30.378409 0.9227965,27.44201 0.00436267,20.052603 0.24927833,12.53413 0.75951932,5.1124597 0.87177238,3.3592249 1.3309892,0.93911528 3.28011,0.57340978 z"
       id="path2989" />
    <path
       style="fill:#fffefe"
       inkscape:connector-curvature="0"
       d="m 9.9846759,3.918539 c 3.9798811,-0.4087295 7.9903751,-0.4087295 11.9702551,0 0.06123,3.2483248 0.102048,6.507406 0.153071,9.766487 0.06124,4.194857 -0.08165,8.378957 -0.163277,12.573814 -3.979879,0.107561 -7.969964,0.107561 -11.9600481,0 C 9.913236,22.063983 9.7703756,17.869126 9.8213997,13.67427 9.872429,10.425945 9.9132421,7.1776199 9.9846769,3.918539 z"
       id="path2991" />
    <path
       style="fill:#fdcc95"
       inkscape:connector-curvature="0"
       d="m 11.546015,5.8331145 c 2.969603,-0.3011692 5.969819,-0.3334373 8.949626,-0.086048 0.06123,2.6567425 0.05103,5.3134845 -0.07144,7.9809845 -3.09206,0.16134 -6.18412,0.0753 -9.255771,-0.344194 0.07144,-2.527671 0.204096,-5.0338282 0.377579,-7.5507422 z"
       id="path2993" />
    <path
       style="fill:#faa720"
       inkscape:connector-curvature="0"
       d="m 1.2901699,12.222203 c 2.8675545,0.333439 5.7146995,0.817461 8.5312298,1.452067 -0.051029,4.194856 0.091842,8.389713 0.1632772,12.58457 3.9900841,0.107561 7.9801691,0.107561 11.9600481,0 0.08165,-4.194857 0.224506,-8.378957 0.163277,-12.573814 2.816532,-0.645362 5.663677,-1.129384 8.531231,-1.473578 0.02041,5.625411 1.816457,12.498521 -1.938916,17.1774 -5.275892,2.204989 -11.255916,0.699144 -16.817544,1.161653 C 8.4947734,30.249332 3.3617483,31.540057 1.8106158,27.269907 0.31050728,22.429689 1.0248447,17.213008 1.2901699,12.222203 z"
       id="path2995" />
    <path
       style="fill:#faa720"
       inkscape:connector-curvature="0"
       d="m 14.423773,15.212384 c 3.336977,-1.473578 7.153579,2.301793 5.959615,5.915824 -0.755157,3.355885 -5.133025,4.64661 -7.469929,2.291037 -2.581819,-2.248013 -1.734818,-7.185038 1.510314,-8.206861 z"
       id="path2997" />
    <path
       style="fill:#fffefe"
       inkscape:connector-curvature="0"
       d="m 13.923738,21.397108 c 0.387783,-1.699454 0.755157,-4.119564 2.990012,-3.61403 0.418397,1.193921 0.775566,2.409353 1.091915,3.635542 -1.367446,0.01076 -2.724687,0.01076 -4.081927,-0.02151 z"
       id="path2999" />
  </g>
</svg>
