<?xml version="1.0" encoding="UTF-8" standalone="no"?>
<!-- Created with Inkscape (http://www.inkscape.org/) -->
<svg
   xmlns:dc="http://purl.org/dc/elements/1.1/"
   xmlns:cc="http://creativecommons.org/ns#"
   xmlns:rdf="http://www.w3.org/1999/02/22-rdf-syntax-ns#"
   xmlns:svg="http://www.w3.org/2000/svg"
   xmlns="http://www.w3.org/2000/svg"
   xmlns:sodipodi="http://sodipodi.sourceforge.net/DTD/sodipodi-0.dtd"
   xmlns:inkscape="http://www.inkscape.org/namespaces/inkscape"
   width="40"
   height="40"
   id="svg2"
   sodipodi:version="0.32"
   inkscape:version="0.46"
   version="1.0"
   sodipodi:docname="Wi-Fi_Logo.svg"
   inkscape:output_extension="org.inkscape.output.svg.inkscape">
  <defs
     id="defs4">
    <inkscape:perspective
       sodipodi:type="inkscape:persp3d"
       inkscape:vp_x="1693.0157 : 423.14553 : 1"
       inkscape:vp_y="6.1230318e-14 : 1000 : 0"
       inkscape:vp_z="2437.1101 : 423.14553 : 1"
       inkscape:persp3d-origin="2065.0629 : 247.75183 : 1"
       id="perspective10" />
    <inkscape:perspective
       id="perspective2447"
       inkscape:persp3d-origin="372.04724 : 350.78739 : 1"
       inkscape:vp_z="744.09448 : 526.18109 : 1"
       inkscape:vp_y="0 : 1000 : 0"
       inkscape:vp_x="0 : 526.18109 : 1"
       sodipodi:type="inkscape:persp3d" />
  </defs>
  <sodipodi:namedview
     id="base"
     pagecolor="#ffffff"
     bordercolor="#666666"
     borderopacity="1.0"
     gridtolerance="10000"
     guidetolerance="10"
     objecttolerance="10"
     inkscape:pageopacity="0.0"
     inkscape:pageshadow="2"
     inkscape:zoom="3.9094159"
     inkscape:cx="106.28848"
     inkscape:cy="-57.497575"
     inkscape:document-units="px"
     inkscape:current-layer="layer1"
     showgrid="false"
     inkscape:window-width="1280"
     inkscape:window-height="987"
     inkscape:window-x="0"
     inkscape:window-y="23" />
  <metadata
     id="metadata7">
    <rdf:RDF>
      <cc:Work
         rdf:about="">
        <dc:format>image/svg+xml</dc:format>
        <dc:type
           rdf:resource="http://purl.org/dc/dcmitype/StillImage" />
      </cc:Work>
    </rdf:RDF>
  </metadata>
  <g
     inkscape:label="Layer 1"
     inkscape:groupmode="layer"
     id="layer1"
     transform="translate(-145.14287,-334.86218)">
    <path
       id="path3281"
       style="opacity:1;fill:#000000;fill-opacity:1;fill-rule:evenodd;stroke:none;stroke-width:1px;stroke-linecap:butt;stroke-linejoin:miter;stroke-opacity:1"
       d="M 145.14299,357.45669 L 145.14299,352.42022 C 145.14299,352.42022 145.08825,350.24868 147.25977,348.07716 C 149.4313,345.90563 151.49334,346.14286 151.49334,346.14286 L 154.34004,346.14286 C 154.34004,346.14286 157.91668,340.77792 164.99695,340.77792 C 172.07721,340.77792 176.1283,346.06986 176.1283,346.06986 L 179.33996,346.06986 C 179.33996,346.06986 180.15075,346.03315 181.16978,346.54491 C 182.19976,347.06216 183.12633,347.65818 184.06976,349.1224 C 185.01588,350.59079 185.14287,351.64859 185.14287,352.42022 C 185.14287,352.42022 185.14287,357.93114 185.14287,357.93114 C 185.14287,359.08008 185.03338,359.97493 183.09908,361.90924 C 181.16478,363.84354 178.68303,363.62456 178.68303,363.62456 L 175.72684,363.62456 C 175.72684,363.62456 172.0345,368.94644 165.10643,368.94644 C 158.17724,368.94644 154.63202,363.66105 154.63202,363.66105 L 151.34735,363.66105 C 151.34735,363.66105 149.17583,363.78878 147.07729,361.69025 C 144.97876,359.59172 145.17949,357.45669 145.14299,357.45669 z M 148.62838,350.21219 L 150.67217,359.02603 L 152.91669,359.02603 L 153.92034,353.95306 L 154.88749,359.02603 L 157.18675,359.02603 L 159.23054,350.26693 L 156.78529,350.26693 L 156.07362,355.06619 L 155.06997,350.24868 L 152.86195,350.24868 L 151.8583,355.12093 L 151.11013,350.23043 L 148.62838,350.21219 z M 160.38551,352.67776 L 160.38551,359.01792 L 162.54247,359.01792 L 162.54247,352.67776 L 160.38551,352.67776 z M 162.86928,350.88683 C 162.86928,351.50019 162.26021,351.99799 161.50974,351.99799 C 160.75928,351.99799 160.1502,351.50019 160.1502,350.88683 C 160.1502,350.27348 160.75928,349.77567 161.50974,349.77567 C 162.26021,349.77567 162.86928,350.27348 162.86928,350.88683 z M 163.39218,362.37754 C 163.39218,362.37754 166.08511,360.33396 166.08511,357.29235 C 166.08511,357.29235 166.08511,352.16794 166.08511,352.16794 C 166.08511,351.34402 166.50757,350.17678 167.77146,348.91289 C 169.03535,347.649 170.14912,347.44877 170.92193,347.44877 C 170.92193,347.44877 178.94843,347.44877 178.94843,347.44877 C 180.31273,347.46778 181.37283,348.03965 182.34728,348.95211 C 183.25019,349.90079 183.83754,351.08964 183.83754,352.39017 L 183.83754,357.29235 C 183.83754,358.25736 183.57878,359.65578 182.29499,360.83499 C 181.0112,362.01421 180.02188,362.37754 179.00072,362.37754 C 179.00072,362.37754 163.39218,362.37754 163.39218,362.37754 z M 178.21636,352.6843 L 178.21636,359.02446 L 180.37332,359.02446 L 180.37332,352.6843 L 178.21636,352.6843 z M 180.70014,350.89337 C 180.70014,351.50673 180.09106,352.00453 179.3406,352.00453 C 178.59013,352.00453 177.98106,351.50673 177.98106,350.89337 C 177.98106,350.28001 178.59013,349.78222 179.3406,349.78222 C 180.09106,349.78222 180.70014,350.28001 180.70014,350.89337 z M 169.14407,358.9787 L 171.56248,358.9787 L 171.56248,356.33807 L 176.16399,356.33807 L 176.16399,354.36412 L 171.54941,354.36412 L 171.54941,352.29866 L 176.76533,352.29866 L 176.76533,350.24628 L 169.131,350.24628 L 169.14407,358.9787 z"
       sodipodi:nodetypes="ccsccsccssccsccsccscccccccccccccccccccccsssccccscccccsccccccccssscccccccccccc" />
  </g>
</svg>
